<?xml version="1.0" encoding="UTF-8" standalone="no"?>
<!DOCTYPE svg PUBLIC "-//W3C//DTD SVG 1.1//EN" "http://www.w3.org/Graphics/SVG/1.1/DTD/svg11.dtd">
<svg width="100%" height="100%" viewBox="0 0 250 250" version="1.1" xmlns="http://www.w3.org/2000/svg" xmlns:xlink="http://www.w3.org/1999/xlink" xml:space="preserve" xmlns:serif="http://www.serif.com/" style="fill-rule:evenodd;clip-rule:evenodd;stroke-linejoin:round;stroke-miterlimit:1.5;">
    <g transform="matrix(1,0,0,1,-1797,-1550)">
        <g id="Icon" transform="matrix(1.24299,0,0,1.43704,-437.101,-678.415)">
            <rect x="1797.36" y="1550.69" width="201.128" height="173.968" style="fill:none;"/>
            <g transform="matrix(4.31624,0,0,3.73339,-2075.04,-2370.38)">
                <path d="M907.021,1083.97L907.021,1062.2C907.021,1062.2 907.197,1059.05 913.21,1059.05C919.224,1059.05 920.61,1062.13 924.941,1066.27C929.272,1070.41 934.558,1075.29 941.527,1069.18C941.663,1070.88 939.663,1083.02 928.718,1083.26C924.934,1083.26 921.423,1079.63 915.14,1079.65C908.858,1079.68 907.021,1083.97 907.021,1083.97Z" style="fill:rgb(188,41,49);"/>
            </g>
            <g transform="matrix(1.10569,0,0,0.956382,-196.757,50.0553)">
                <path d="M1820.87,1609.69L1820.87,1729.79" style="fill:none;stroke:rgb(24,43,101);stroke-width:19.71px;"/>
            </g>
        </g>
    </g>
</svg>
